<svg width="28" height="28" viewBox="0 0 28 28" fill="none" xmlns="http://www.w3.org/2000/svg">
<path d="M4.781 23.219C5.18727 23.6254 5.66962 23.9477 6.20049 24.1677C6.73137 24.3876 7.30037 24.5008 7.875 24.5008M4.781 23.219C5.60147 24.0395 6.71468 24.5008 7.875 24.5008M4.781 23.219C3.96053 22.3985 3.5 21.2853 3.5 20.125V4.8125C3.5 4.088 4.088 3.5 4.8125 3.5H10.9375C11.662 3.5 12.25 4.088 12.25 4.8125V9.56317M7.875 24.5008C8.44963 24.5008 9.01863 24.3876 9.54951 24.1677C10.0804 23.9477 10.5627 23.6254 10.969 23.219M7.875 24.5008C9.03532 24.5008 10.1485 24.0395 10.969 23.219M7.875 24.5008L23.1875 24.5C23.912 24.5 24.5 23.912 24.5 23.1875V17.0625C24.5 16.338 23.912 15.75 23.1875 15.75H18.4368M10.969 23.219L18.4368 15.75M10.969 23.219C11.7895 22.3985 12.25 21.2853 12.25 20.125V9.56317M18.4368 15.75L21.7957 12.39C22.309 11.879 22.309 11.0483 21.7957 10.535L17.465 6.20317C16.9517 5.691 16.121 5.691 15.61 6.20317L12.25 9.56317M7.875 20.125H7.88433V20.1343H7.875V20.125Z" stroke="white" stroke-opacity="1" stroke-width="1.7" stroke-linecap="round" stroke-linejoin="round"/>
</svg>
