<svg width="28" height="28" viewBox="0 0 28 28" fill="none" xmlns="http://www.w3.org/2000/svg">
<path d="M12 2.53516H9C8.20435 2.53516 7.44129 2.85123 6.87868 3.41384C6.31607 3.97644 6 4.73951 6 5.53516V22.9637C6 23.7594 6.31607 24.5224 6.87868 25.085C7.44129 25.6477 8.20435 25.9637 9 25.9637H19C19.7957 25.9637 20.5587 25.6477 21.1213 25.085C21.6839 24.5224 22 23.7594 22 22.9637V5.53516C22 4.73951 21.6839 3.97644 21.1213 3.41384C20.5587 2.85123 19.7957 2.53516 19 2.53516H16M12 2.53516V4.53516H16V2.53516M12 2.53516H16M12 22.9637H16M12 3.53516H16" stroke="white" stroke-opacity="1" stroke-width="1.7" stroke-linecap="round" stroke-linejoin="round"/>
</svg>
