<svg width="28" height="28" viewBox="0 0 28 28" fill="none" xmlns="http://www.w3.org/2000/svg">
<path d="M3.5 9.625V21C3.5 21.6962 3.77656 22.3639 4.26884 22.8562C4.76113 23.3484 5.42881 23.625 6.125 23.625H21.875C22.5712 23.625 23.2389 23.3484 23.7312 22.8562C24.2234 22.3639 24.5 21.6962 24.5 21V9.625M3.5 9.625V7C3.5 6.30381 3.77656 5.63613 4.26884 5.14384C4.76113 4.65156 5.42881 4.375 6.125 4.375H21.875C22.5712 4.375 23.2389 4.65156 23.7312 5.14384C24.2234 5.63613 24.5 6.30381 24.5 7V9.625M3.5 9.625H24.5M6.125 7H6.13433V7.00933H6.125V7ZM8.75 7H8.75933V7.00933H8.75V7ZM11.375 7H11.3843V7.00933H11.375V7Z" stroke="white" stroke-opacity="1" stroke-width="1.7" stroke-linecap="round" stroke-linejoin="round"/>
</svg>
